HIERARCHY
ROOT pelvis
{
  OFFSET 0 100 0
  CHANNELS 6 Xposition Yposition Zposition Zrotation Xrotation Yrotation
  JOINT pelvis_right_femur
  {
    OFFSET -10.78128 -3.44521 -0.5502486
    CHANNELS 3 Zrotation Xrotation Yrotation
    JOINT right_femur_tibia
    {
      OFFSET -0.8047443 -44.0398 -0.1307829
      CHANNELS 3 Zrotation Xrotation Yrotation
      JOINT right_tibia_foot
      {
        OFFSET 3.006224 -47.83518 -5
        CHANNELS 3 Zrotation Xrotation Yrotation
        End Site
        {
          OFFSET 0 -5 15
        }
      }
    }
  }
  JOINT pelvis_left_femur
  {
    OFFSET 10.78128 -3.44521 -0.5502486
    CHANNELS 3 Zrotation Xrotation Yrotation
    JOINT left_femur_tibia
    {
      OFFSET 0.8047443 -44.0398 -0.1307829
      CHANNELS 3 Zrotation Xrotation Yrotation
      JOINT left_tibia_foot
      {
        OFFSET -4.370144 -48.10324 -4.275266
        CHANNELS 3 Zrotation Xrotation Yrotation
        End Site
        {
          OFFSET 0 -5 15
        }
      }
    }
  }
  JOINT pelvis_spine1
  {
    OFFSET 0 6.468898 -3.129235
    CHANNELS 3 Zrotation Xrotation Yrotation
    JOINT spine1
    {
      OFFSET 0 23.15396 4.99043
      CHANNELS 3 Zrotation Xrotation Yrotation
      JOINT spine2
      {
        OFFSET 0 20.79997 -5.064912
        CHANNELS 3 Zrotation Xrotation Yrotation
        JOINT neck
        {
          OFFSET 0 14.38658 9.616178
          CHANNELS 3 Zrotation Xrotation Yrotation
          End Site
          {
            OFFSET 0 20 0
          }
        }
      }
      JOINT right_manubrium
      {
        OFFSET -5.722621 16.35077 3.967754
        CHANNELS 3 Zrotation Xrotation Yrotation
        JOINT right_clavicle
        {
          OFFSET -13.16364 1.694482 -4.693211
          CHANNELS 3 Zrotation Xrotation Yrotation
          JOINT right_humerus
          {
            OFFSET -28.5034 -0.3100689 -2.792744
            CHANNELS 3 Zrotation Xrotation Yrotation
            JOINT right_radius
            {
              OFFSET -25.15693 0.02248979 -1.271978
              CHANNELS 3 Zrotation Xrotation Yrotation
              End Site
              {
                OFFSET -15 0 0
              }
            }
          }
        }
      }
      JOINT left_manubrium
      {
        OFFSET 5.722621 16.35077 3.967754
        CHANNELS 3 Zrotation Xrotation Yrotation
        JOINT left_clavicle
        {
          OFFSET 13.16364 1.694482 -4.693211
          CHANNELS 3 Zrotation Xrotation Yrotation
          JOINT left_humerus
          {
            OFFSET 29.39168 -1.063119 -2.237045
            CHANNELS 3 Zrotation Xrotation Yrotation
            JOINT left_radius
            {
              OFFSET 24.59957 -0.9528479 0.9047498
              CHANNELS 3 Zrotation Xrotation Yrotation
              End Site
              {
                OFFSET 15 -0 -0
              }
            }
          }
        }
      }
    }
  }
}
MOTION
Frames: 13
Frame Time: 0.0416666666667
-1058.091 174.3463 1415.729 -3.691124 11.06376 -159.8376 6.590984 6.11939 2.366002 -0 18.86272 -0 -7.630251 -11.00942 -7.156 3.156031 -8.878525 -3.590621 -0 15.97267 -0 5.099352 -3.985274 8.479224 2.700097 -3.753427 7.48894 0.08119032 16.37341 -5.552462 2.52596 18.22961 -2.011117 -3.373467 -18.19966 2.771105 -3.271735 -34.05423 13.32301 94.04836 6.965157 -10.51575 -0 0 30.12901 -25.58271 19.82013 20.75108 -3.145596 -20.1073 -12.33479 -93.04616 15.13931 39.8713 0 0 -19.97306 -10.50099 11.58107 27.51373
-1061.282 174.2043 1410.57 -3.596054 11.09468 -160.3324 6.590984 6.11939 2.366002 -0 18.86272 -0 -7.630251 -11.00942 -7.156 3.156031 -8.878525 -3.590621 -0 15.97267 -0 5.099352 -3.985274 8.479224 2.700097 -3.753427 7.48894 0.08119032 16.37341 -5.552462 2.52596 18.22961 -2.011117 -3.373467 -18.19966 2.771105 -3.271735 -34.05423 13.32301 94.04836 6.965157 -10.51575 -0 0 30.12901 -25.58271 19.82013 20.75108 -3.145596 -20.1073 -12.33479 -93.04616 15.13931 39.8713 0 0 -19.97306 -10.50099 11.58107 27.51373
-1064.429 174.0624 1405.385 -3.500706 11.12479 -160.8272 6.590984 6.11939 2.366002 -0 18.86272 -0 -7.630251 -11.00942 -7.156 3.156031 -8.878525 -3.590621 -0 15.97267 -0 5.099352 -3.985274 8.479224 2.700097 -3.753427 7.48894 0.08119032 16.37341 -5.552462 2.52596 18.22961 -2.011117 -3.373467 -18.19966 2.771105 -3.271735 -34.05423 13.32301 94.04836 6.965157 -10.51575 -0 0 30.12901 -25.58271 19.82013 20.75108 -3.145596 -20.1073 -12.33479 -93.04616 15.13931 39.8713 0 0 -19.97306 -10.50099 11.58107 27.51373
-1067.532 173.9204 1400.173 -3.405086 11.15409 -161.3221 6.590984 6.11939 2.366002 -0 18.86272 -0 -7.630251 -11.00942 -7.156 3.156031 -8.878525 -3.590621 -0 15.97267 -0 5.099352 -3.985274 8.479224 2.700097 -3.753427 7.48894 0.08119032 16.37341 -5.552462 2.52596 18.22961 -2.011117 -3.373467 -18.19966 2.771105 -3.271735 -34.05423 13.32301 94.04836 6.965157 -10.51575 -0 0 30.12901 -25.58271 19.82013 20.75108 -3.145596 -20.1073 -12.33479 -93.04616 15.13931 39.8713 0 0 -19.97306 -10.50099 11.58107 27.51373
-1070.591 173.7785 1394.935 -3.309202 11.18258 -161.8171 6.590984 6.11939 2.366002 -0 18.86272 -0 -7.630251 -11.00942 -7.156 3.156031 -8.878525 -3.590621 -0 15.97267 -0 5.099352 -3.985274 8.479224 2.700097 -3.753427 7.48894 0.08119032 16.37341 -5.552462 2.52596 18.22961 -2.011117 -3.373467 -18.19966 2.771105 -3.271735 -34.05423 13.32301 94.04836 6.965157 -10.51575 -0 0 30.12901 -25.58271 19.82013 20.75108 -3.145596 -20.1073 -12.33479 -93.04616 15.13931 39.8713 0 0 -19.97306 -10.50099 11.58107 27.51373
-1073.605 173.6365 1389.671 -3.213062 11.21025 -162.3123 6.590984 6.11939 2.366002 -0 18.86272 -0 -7.630251 -11.00942 -7.156 3.156031 -8.878525 -3.590621 -0 15.97267 -0 5.099352 -3.985274 8.479224 2.700097 -3.753427 7.48894 0.08119032 16.37341 -5.552462 2.52596 18.22961 -2.011117 -3.373467 -18.19966 2.771105 -3.271735 -34.05423 13.32301 94.04836 6.965157 -10.51575 -0 0 30.12901 -25.58271 19.82013 20.75108 -3.145596 -20.1073 -12.33479 -93.04616 15.13931 39.8713 0 0 -19.97306 -10.50099 11.58107 27.51373
-1076.575 173.4945 1384.382 -3.116672 11.23711 -162.8075 6.590984 6.11939 2.366002 -0 18.86272 -0 -7.630251 -11.00942 -7.156 3.156031 -8.878525 -3.590621 -0 15.97267 -0 5.099352 -3.985274 8.479224 2.700097 -3.753427 7.48894 0.08119032 16.37341 -5.552462 2.52596 18.22961 -2.011117 -3.373467 -18.19966 2.771105 -3.271735 -34.05423 13.32301 94.04836 6.965157 -10.51575 -0 0 30.12901 -25.58271 19.82013 20.75108 -3.145596 -20.1073 -12.33479 -93.04616 15.13931 39.8713 0 0 -19.97306 -10.50099 11.58107 27.51373
-1079.499 173.3526 1379.068 -3.020041 11.26315 -163.3028 6.590984 6.11939 2.366002 -0 18.86272 -0 -7.630251 -11.00942 -7.156 3.156031 -8.878525 -3.590621 -0 15.97267 -0 5.099352 -3.985274 8.479224 2.700097 -3.753427 7.48894 0.08119032 16.37341 -5.552462 2.52596 18.22961 -2.011117 -3.373467 -18.19966 2.771105 -3.271735 -34.05423 13.32301 94.04836 6.965157 -10.51575 -0 0 30.12901 -25.58271 19.82013 20.75108 -3.145596 -20.1073 -12.33479 -93.04616 15.13931 39.8713 0 0 -19.97306 -10.50099 11.58107 27.51373
-1082.378 173.2106 1373.729 -2.923175 11.28837 -163.7982 6.590984 6.11939 2.366002 -0 18.86272 -0 -7.630251 -11.00942 -7.156 3.156031 -8.878525 -3.590621 -0 15.97267 -0 5.099352 -3.985274 8.479224 2.700097 -3.753427 7.48894 0.08119032 16.37341 -5.552462 2.52596 18.22961 -2.011117 -3.373467 -18.19966 2.771105 -3.271735 -34.05423 13.32301 94.04836 6.965157 -10.51575 -0 0 30.12901 -25.58271 19.82013 20.75108 -3.145596 -20.1073 -12.33479 -93.04616 15.13931 39.8713 0 0 -19.97306 -10.50099 11.58107 27.51373
-1085.212 173.0687 1368.366 -2.826081 11.31277 -164.2937 6.590984 6.11939 2.366002 -0 18.86272 -0 -7.630251 -11.00942 -7.156 3.156031 -8.878525 -3.590621 -0 15.97267 -0 5.099352 -3.985274 8.479224 2.700097 -3.753427 7.48894 0.08119032 16.37341 -5.552462 2.52596 18.22961 -2.011117 -3.373467 -18.19966 2.771105 -3.271735 -34.05423 13.32301 94.04836 6.965157 -10.51575 -0 0 30.12901 -25.58271 19.82013 20.75108 -3.145596 -20.1073 -12.33479 -93.04616 15.13931 39.8713 0 0 -19.97306 -10.50099 11.58107 27.51373
-1088 172.9267 1362.979 -2.728768 11.33634 -164.7892 6.590984 6.11939 2.366002 -0 18.86272 -0 -7.630251 -11.00942 -7.156 3.156031 -8.878525 -3.590621 -0 15.97267 -0 5.099352 -3.985274 8.479224 2.700097 -3.753427 7.48894 0.08119032 16.37341 -5.552462 2.52596 18.22961 -2.011117 -3.373467 -18.19966 2.771105 -3.271735 -34.05423 13.32301 94.04836 6.965157 -10.51575 -0 0 30.12901 -25.58271 19.82013 20.75108 -3.145596 -20.1073 -12.33479 -93.04616 15.13931 39.8713 0 0 -19.97306 -10.50099 11.58107 27.51373
-1090.742 172.7848 1357.568 -2.631243 11.35909 -165.2849 6.590984 6.11939 2.366002 -0 18.86272 -0 -7.630251 -11.00942 -7.156 3.156031 -8.878525 -3.590621 -0 15.97267 -0 5.099352 -3.985274 8.479224 2.700097 -3.753427 7.48894 0.08119032 16.37341 -5.552462 2.52596 18.22961 -2.011117 -3.373467 -18.19966 2.771105 -3.271735 -34.05423 13.32301 94.04836 6.965157 -10.51575 -0 0 30.12901 -25.58271 19.82013 20.75108 -3.145596 -20.1073 -12.33479 -93.04616 15.13931 39.8713 0 0 -19.97306 -10.50099 11.58107 27.51373
-1093.438 172.6428 1352.135 -2.533513 11.38101 -165.7806 6.590984 6.11939 2.366002 -0 18.86272 -0 -7.630251 -11.00942 -7.156 3.156031 -8.878525 -3.590621 -0 15.97267 -0 5.099352 -3.985274 8.479224 2.700097 -3.753427 7.48894 0.08119032 16.37341 -5.552462 2.52596 18.22961 -2.011117 -3.373467 -18.19966 2.771105 -3.271735 -34.05423 13.32301 94.04836 6.965157 -10.51575 -0 0 30.12901 -25.58271 19.82013 20.75108 -3.145596 -20.1073 -12.33479 -93.04616 15.13931 39.8713 0 0 -19.97306 -10.50099 11.58107 27.51373
